<?xml version="1.0" standalone="no"?>
<!DOCTYPE svg PUBLIC "-//W3C//DTD SVG 20010904//EN"
 "http://www.w3.org/TR/2001/REC-SVG-20010904/DTD/svg10.dtd">
<svg version="1.0" xmlns="http://www.w3.org/2000/svg"
 width="100.000000pt" height="100.000000pt" viewBox="0 0 100.000000 100.000000"
 preserveAspectRatio="xMidYMid meet">
<metadata>
Created by potrace 1.11, written by Peter Selinger 2001-2013
</metadata>
<g transform="translate(0.000000,100.000000) scale(0.100000,-0.100000)"
fill="#000000" stroke="none">
<path d="M365 891 c-74 -26 -106 -45 -152 -88 -152 -140 -130 -411 41 -504 32
-18 62 -26 89 -25 l42 1 0 143 0 142 56 55 55 56 57 -58 57 -57 0 -103 0 -103
-65 0 c-45 0 -65 -4 -66 -12 -2 -19 2 -52 7 -57 10 -10 166 -2 179 9 12 10 15
41 15 152 l0 140 -82 84 c-45 46 -89 84 -99 84 -9 0 -53 -36 -98 -80 -89 -87
-84 -75 -81 -219 1 -90 -7 -108 -44 -89 -81 44 -111 181 -63 290 83 185 340
233 483 90 48 -48 72 -98 86 -181 28 -164 -35 -307 -162 -364 -59 -27 -198
-35 -256 -15 -40 14 -41 14 -62 -11 -12 -14 -22 -29 -22 -32 0 -7 41 -29 60
-32 8 -2 20 -6 27 -10 19 -12 138 -16 185 -6 58 13 148 49 148 60 0 5 5 9 11
9 16 0 100 86 92 94 -3 3 -1 6 5 6 7 0 24 25 38 55 112 246 -7 514 -260 581
-70 19 -161 17 -221 -5z"/>
</g>
</svg>
